<svg xmlns="http://www.w3.org/2000/svg" xmlns:xlink="http://www.w3.org/1999/xlink" width="500" zoomAndPan="magnify" viewBox="0 0 375 374.999991" height="500" preserveAspectRatio="xMidYMid meet" version="1.0"><defs><g/><clipPath id="c4b5f064ac"><path d="M 70.496094 74.703125 L 292.546875 74.703125 L 292.546875 300.347656 L 70.496094 300.347656 Z M 70.496094 74.703125 " clip-rule="nonzero"/></clipPath><clipPath id="1fe1080998"><path d="M 67.914062 244.566406 L 307.15625 244.566406 L 307.15625 250 L 67.914062 250 Z M 67.914062 244.566406 " clip-rule="nonzero"/></clipPath><clipPath id="ab5cc0ab4b"><path d="M 67.914062 195 L 307.15625 195 L 307.15625 200.679688 L 67.914062 200.679688 Z M 67.914062 195 " clip-rule="nonzero"/></clipPath><clipPath id="44cdfebdcb"><path d="M 173.761719 95.292969 L 201.421875 95.292969 L 201.421875 121.539062 L 173.761719 121.539062 Z M 173.761719 95.292969 " clip-rule="nonzero"/></clipPath><clipPath id="4465af8712"><path d="M 223.402344 105.882812 L 228.757812 105.882812 L 228.757812 110.988281 L 223.402344 110.988281 Z M 223.402344 105.882812 " clip-rule="nonzero"/></clipPath><clipPath id="b127096c34"><path d="M 146.339844 105 L 152 105 L 152 111 L 146.339844 111 Z M 146.339844 105 " clip-rule="nonzero"/></clipPath></defs><path fill="#022135" d="M 135.304688 161.664062 C 135.304688 161.664062 128.511719 161.753906 128.238281 162.804688 C 127.972656 163.847656 127.628906 164.734375 131.171875 164.253906 C 134.714844 163.78125 136.664062 162.253906 136.417969 162.007812 C 136.167969 161.753906 135.304688 161.664062 135.304688 161.664062 Z M 108.796875 165.324219 C 108.796875 165.324219 106.394531 165.367188 106.347656 165.867188 C 106.296875 166.367188 106.484375 166.929688 107.371094 166.820312 C 108.253906 166.703125 109.574219 165.984375 109.417969 165.710938 C 109.25 165.433594 108.796875 165.324219 108.796875 165.324219 Z M 85.566406 176.207031 C 99.972656 171.511719 105.605469 191.902344 95.464844 198.90625 C 98.492188 199.054688 100.730469 199.472656 102.300781 198.320312 C 105.832031 195.738281 107.898438 186.050781 103.460938 179.578125 C 102.042969 175.871094 96.710938 171.324219 90.835938 172.292969 C 84.75 173.296875 81.75 178.652344 81.75 178.652344 C 81.75 178.652344 81.75 178.652344 82.300781 178.742188 C 82.664062 178.800781 83.128906 177.429688 85.566406 176.207031 Z M 181.3125 174.003906 C 194.558594 173.398438 197.785156 187.824219 194.476562 198.453125 L 205.203125 198.320312 C 210.386719 179.425781 200.511719 159.121094 178.890625 162.167969 C 169.445312 163.5 163.960938 170.769531 162.132812 173.246094 C 161.039062 174.730469 161.777344 174.855469 162.984375 173.6875 C 164.804688 171.921875 168.972656 167.957031 175.804688 165.941406 C 184.785156 163.292969 191.359375 166.074219 195.808594 171.746094 C 191.894531 169.136719 185.734375 167.816406 180.136719 169.101562 C 169.144531 171.613281 161.679688 181.878906 162.664062 197.972656 C 162.746094 199.28125 168.933594 198.265625 168.933594 198.265625 C 168.933594 198.265625 167.894531 195.851562 167.859375 191.757812 C 167.765625 181.726562 172.761719 174.699219 181.3125 174.003906 Z M 254.472656 196.144531 C 254.472656 196.144531 271.644531 195.226562 276.644531 193.40625 C 278.199219 192.84375 279.476562 191.929688 280.492188 190.945312 C 269.460938 194.167969 226.976562 192.601562 226.976562 192.601562 C 226.976562 192.601562 223.886719 193.175781 223.75 191.558594 C 223.617188 189.9375 227.675781 177.957031 230.988281 174.121094 C 233.273438 171.457031 244.054688 171.269531 247.171875 172.691406 C 248.992188 173.523438 250.988281 176.589844 253.441406 176.867188 C 255.894531 177.132812 273.796875 177.578125 276.382812 176.472656 C 278.972656 175.367188 279.335938 173.949219 280.835938 173.660156 C 282.332031 173.371094 287.46875 172.871094 287.871094 173.234375 C 288.132812 173.46875 288.414062 178.582031 286.925781 183.355469 C 286.566406 184.636719 284.316406 191.984375 278.191406 195.128906 C 271.46875 198.582031 263.5625 198.855469 263.5625 198.855469 Z M 77.320312 179.695312 C 77.320312 179.695312 81.070312 168.730469 83.570312 166.820312 C 86.070312 164.914062 88.402344 165.207031 90.863281 162.710938 C 93.3125 160.214844 102.4375 147.316406 104.210938 146.5 C 104.53125 146.355469 106.019531 145.777344 108.261719 144.949219 C 107.316406 147.824219 104.320312 156.988281 104.78125 157.214844 C 105.246094 157.449219 108.960938 147.421875 110.324219 144.191406 C 115.375 142.34375 122.820312 139.710938 129.824219 137.429688 C 128.175781 141.089844 125.058594 154.015625 125.058594 154.015625 C 125.058594 154.015625 125.058594 154.015625 125.175781 154.214844 C 125.242188 154.347656 129.371094 141.84375 132.542969 136.558594 C 140.085938 134.167969 146.640625 132.398438 148.40625 132.78125 C 151.703125 133.503906 156.9375 139.394531 160.992188 144.042969 C 160.191406 143.34375 159.46875 142.792969 158.96875 142.570312 C 157.011719 141.707031 149.65625 142.386719 148.023438 143.429688 C 146.386719 144.480469 147.519531 148.015625 147.519531 148.015625 C 147.519531 148.015625 148.023438 148.839844 149.273438 149.109375 C 150.515625 149.382812 155.335938 148.652344 157.332031 148.378906 C 158.542969 148.214844 160.277344 148.839844 161.453125 149.355469 C 144.710938 152.316406 99.398438 161.691406 99.398438 161.691406 C 99.398438 161.691406 96.21875 162.550781 96.648438 162.828125 C 96.890625 162.976562 137.179688 156.5625 173.367188 153.507812 C 184.058594 152.601562 194.558594 152.285156 203.394531 152.226562 C 203.445312 152.417969 203.5 152.625 203.566406 152.835938 C 204.160156 154.558594 212.5625 163.328125 217.378906 164.6875 C 222.191406 166.046875 231.050781 164.871094 230.871094 164.460938 C 230.683594 164.046875 224.550781 164.28125 220.605469 162.867188 C 216.648438 161.460938 209.835938 154.789062 209.472656 153.558594 C 209.324219 153.050781 209.484375 152.589844 209.726562 152.226562 C 213.265625 152.238281 216.394531 152.292969 218.984375 152.355469 C 220.980469 152.742188 223.078125 153.289062 225.054688 154.058594 C 232.140625 156.832031 238.410156 162.828125 238.226562 163.507812 C 238.046875 164.1875 236.867188 164.28125 236.867188 164.28125 C 236.867188 164.28125 239.632812 164.914062 239.863281 162.777344 C 240.050781 161.011719 236.714844 155.535156 235.390625 153.632812 C 236.707031 153.949219 239.054688 154.609375 239.957031 155.464844 C 241.226562 156.695312 246.628906 167.1875 249.445312 168.59375 C 252.261719 170 281.742188 170.503906 282.742188 168.910156 C 283.738281 167.320312 277.746094 154.246094 277.746094 154.246094 C 277.746094 154.246094 264.257812 150.96875 246.992188 149.882812 C 245.929688 149.816406 244.835938 149.746094 243.710938 149.683594 C 243.59375 149.679688 243.484375 149.664062 243.359375 149.660156 C 237.496094 149.265625 211.980469 148.222656 196.808594 148.640625 C 189.75 148.839844 175.695312 150.21875 170.972656 145.0625 C 169.652344 143.621094 161.90625 136.664062 156.335938 132.136719 L 179.902344 144.933594 L 223.507812 145.75 C 223.507812 145.75 216.511719 139.660156 208.882812 136.484375 C 198.847656 132.300781 162.476562 127.960938 150.179688 128.105469 C 149.601562 128.058594 148.925781 128.09375 148.234375 128.183594 L 148.226562 128.183594 C 146.003906 128.464844 143.59375 129.242188 143.59375 129.242188 C 143.59375 129.242188 103.847656 143.683594 101.71875 145.683594 C 99.582031 147.679688 90.042969 161.574219 88.539062 162.03125 C 87.042969 162.484375 83.589844 162.804688 82.09375 165.167969 C 81.199219 166.566406 78.214844 172.863281 77.128906 176.578125 C 76.386719 179.117188 77.320312 179.695312 77.320312 179.695312 " fill-opacity="1" fill-rule="evenodd"/><path stroke-linecap="round" transform="matrix(0.0516404, 0, 0, -0.0516307, 67.912682, 300.34829)" fill="none" stroke-linejoin="round" d="M 1305.024709 2686.078474 C 1305.024709 2686.078474 1173.481033 2684.338352 1168.186003 2663.9865 C 1163.04226 2643.785963 1156.385651 2626.611723 1224.994112 2635.917589 C 1293.602573 2645.07214 1331.348573 2674.6542 1326.583046 2679.420619 C 1321.741876 2684.338352 1305.024709 2686.078474 1305.024709 2686.078474 Z M 791.709365 2615.18745 C 791.709365 2615.18745 745.188743 2614.355218 744.281024 2604.671065 C 743.297661 2594.986912 746.928539 2584.09224 764.099565 2586.210649 C 781.194948 2588.480372 806.762379 2602.401342 803.736647 2607.697363 C 800.483986 2613.069041 791.709365 2615.18745 791.709365 2615.18745 Z M 341.858738 2404.405813 C 620.83118 2495.34606 729.908799 2100.414207 533.538827 1964.760411 C 592.162374 1961.885429 635.505977 1953.790082 665.914579 1976.109028 C 734.29611 2026.118598 774.311409 2213.749057 688.380635 2339.11344 C 660.922122 2410.912353 557.669035 2498.977617 443.901532 2480.214571 C 326.049291 2460.770608 267.955246 2357.044254 267.955246 2357.044254 C 267.955246 2357.044254 267.955246 2357.044254 278.62095 2355.304133 C 285.655776 2354.169271 294.657327 2380.725033 341.858738 2404.405813 Z M 2195.951342 2447.076611 C 2452.457728 2458.803515 2514.939083 2179.400577 2450.869219 1973.536675 L 2658.585684 1976.109028 C 2758.964326 2342.06408 2567.738097 2735.331469 2149.052504 2676.318664 C 1966.147037 2650.519475 1859.943862 2509.720974 1824.542804 2461.754155 C 1803.362683 2433.004327 1817.659264 2430.583288 1841.03304 2453.204864 C 1876.282812 2487.402028 1956.994199 2564.194333 2089.294308 2603.233573 C 2263.198224 2654.52932 2390.505876 2600.66122 2476.66358 2490.806613 C 2400.869006 2541.345785 2281.579543 2566.918001 2173.182713 2542.026702 C 1960.322503 2493.378966 1815.768182 2294.551206 1834.830291 1982.84254 C 1836.4188 1957.497297 1956.237766 1977.168232 1956.237766 1977.168232 C 1956.237766 1977.168232 1936.116652 2023.924532 1935.435862 2103.213532 C 1933.620423 2297.501846 2030.368187 2433.609586 2195.951342 2447.076611 Z M 3612.674462 2018.250224 C 3612.674462 2018.250224 3945.202351 2036.029723 4042.025758 2071.286091 C 4072.131786 2082.180763 4096.867141 2099.884605 4116.534395 2118.95028 C 3902.917753 2056.53289 3080.221365 2086.871525 3080.221365 2086.871525 C 3080.221365 2086.871525 3020.387526 2075.74988 3017.74001 2107.072062 C 3015.168139 2138.469901 3093.761514 2370.511279 3157.907021 2444.806888 C 3202.158344 2496.405264 3410.933816 2500.036821 3471.297158 2472.497512 C 3506.54693 2456.382476 3545.20065 2396.991384 3592.704634 2391.619705 C 3640.208618 2386.474999 3986.881802 2377.850051 4036.957658 2399.261107 C 4087.109157 2420.596506 4094.143983 2448.135815 4123.191005 2453.734466 C 4152.162384 2459.333117 4251.633306 2469.017269 4259.424564 2461.981127 C 4264.492665 2457.441681 4269.938981 2358.406088 4241.118889 2265.952692 C 4234.159706 2241.137051 4190.589173 2098.825401 4071.980499 2037.921159 C 3941.798403 1971.039979 3788.69639 1965.743958 3788.69639 1965.743958 Z M 182.175759 2336.843716 C 182.175759 2336.843716 254.793315 2549.214159 303.205018 2586.210649 C 351.616722 2623.131481 396.775764 2617.457173 444.431035 2665.802279 C 491.859376 2714.147385 668.562094 2963.968262 702.904146 2979.780668 C 709.106895 2982.579993 737.926988 2993.777295 781.346234 3009.816673 C 763.040559 2954.132794 705.022158 2776.640433 713.948066 2772.252301 C 722.949617 2767.712855 794.886383 2961.925511 821.28589 3024.494217 C 919.09266 3060.280187 1063.268765 3111.273304 1198.897178 3155.45725 C 1166.975711 3084.566226 1106.612368 2834.215747 1106.612368 2834.215747 C 1106.612368 2834.215747 1106.612368 2834.215747 1108.881667 2830.357218 C 1110.167602 2827.784865 1190.122557 3069.96434 1251.544906 3172.32886 C 1397.612092 3218.631215 1524.541528 3252.904037 1558.732293 3245.489608 C 1622.575228 3231.492981 1723.937232 3117.401557 1802.454964 3027.369199 C 1786.94809 3040.911882 1772.954082 3051.579581 1763.271741 3055.892055 C 1725.374454 3072.61235 1582.938145 3059.447955 1551.319251 3039.247418 C 1519.624714 3018.895566 1541.561267 2950.42558 1541.561267 2950.42558 C 1541.561267 2950.42558 1551.319251 2934.461859 1575.525103 2929.241496 C 1599.579668 2923.945475 1692.923484 2938.093417 1731.577204 2943.389438 C 1755.026623 2946.56705 1788.612242 2934.461859 1811.380872 2924.475077 C 1487.173744 2867.126735 609.711617 2685.548872 609.711617 2685.548872 C 609.711617 2685.548872 548.137981 2668.904234 556.458743 2663.532556 C 561.148626 2660.657573 1341.333487 2784.887094 2042.092897 2844.051215 C 2249.128573 2861.603742 2452.457728 2867.731994 2623.562843 2868.866856 C 2624.546205 2865.159641 2625.605211 2861.149797 2626.891147 2857.064295 C 2638.388927 2823.699363 2801.097637 2653.848403 2894.36581 2627.519613 C 2987.558339 2601.190823 3159.117314 2623.963713 3155.637722 2631.907744 C 3152.006845 2639.927433 3033.246884 2635.387987 2956.847165 2662.775981 C 2880.220515 2690.012661 2748.298623 2819.235573 2741.263797 2843.067668 C 2738.389352 2852.903136 2741.490727 2861.830714 2746.180611 2868.866856 C 2814.713429 2868.639884 2875.303701 2867.58068 2925.455201 2866.370161 C 2964.10892 2858.880074 3004.729365 2848.288032 3043.004868 2833.383515 C 3180.221791 2779.666731 3301.629266 2663.532556 3298.074032 2650.368161 C 3294.59444 2637.203765 3271.750168 2635.387987 3271.750168 2635.387987 C 3271.750168 2635.387987 3325.305615 2623.131481 3329.768569 2664.516102 C 3333.399447 2698.713267 3268.80008 2804.785002 3243.157005 2841.630177 C 3268.648793 2835.501924 3314.110408 2822.715816 3331.584008 2806.146836 C 3356.168076 2782.314741 3460.782742 2579.098849 3515.321551 2551.86217 C 3569.860361 2524.62549 4140.740247 2514.86568 4160.104929 2545.733917 C 4179.393967 2576.526496 4063.357165 2829.751958 4063.357165 2829.751958 C 4063.357165 2829.751958 3802.160895 2893.228553 3467.817567 2914.261322 C 3447.242593 2915.547498 3426.062473 2916.909332 3404.277206 2918.119852 C 3402.007908 2918.195509 3399.889896 2918.498139 3397.469311 2918.573796 C 3283.928737 2926.215198 2789.826787 2946.415735 2496.028261 2938.320389 C 2359.340842 2934.461859 2087.176296 2907.754782 1995.723562 3007.622607 C 1970.156131 3035.540203 1820.155493 3170.286109 1712.288166 3257.973086 L 2168.644115 3010.119302 L 3013.050127 2994.306897 C 3013.050127 2994.306897 2877.573 3112.25685 2729.841661 3173.766352 C 2535.514057 3254.795473 1831.199413 3338.850892 1593.074346 3336.051567 C 1581.879139 3336.959456 1568.792851 3336.278539 1555.403989 3334.538418 L 1555.252702 3334.538418 C 1512.211672 3329.091082 1465.539764 3314.035251 1465.539764 3314.035251 C 1465.539764 3314.035251 695.86932 3034.329684 654.643729 2995.593073 C 613.266851 2956.93212 428.545944 2687.818595 399.423279 2678.966674 C 370.4519 2670.190411 303.583235 2663.9865 274.611856 2618.213747 C 257.289543 2591.128383 199.498072 2469.168584 178.469238 2397.218356 C 164.097014 2348.041018 182.175759 2336.843716 182.175759 2336.843716 Z M 182.175759 2336.843716 " stroke="#000000" stroke-width="2.268" stroke-opacity="1" stroke-miterlimit="10"/><g clip-path="url(#c4b5f064ac)"><path fill="#bc1823" d="M 80.011719 157.074219 C 74.765625 135.363281 70.804688 117.953125 70.949219 115.578125 C 72.074219 97.566406 94.46875 85.738281 124.875 79.738281 C 141.894531 76.382812 161.714844 74.699219 181.566406 74.699219 C 201.410156 74.699219 221.222656 76.375 238.246094 79.738281 C 268.609375 85.730469 290.96875 97.554688 292.097656 115.578125 C 292.226562 117.6875 289.113281 131.636719 284.746094 149.917969 C 281.019531 148.78125 276.472656 147.550781 271.722656 146.34375 C 275.710938 129.917969 278.5 117.785156 278.414062 116.378906 C 277.757812 105.847656 259.945312 98 235.617188 93.203125 C 219.320312 89.984375 200.429688 88.375 181.566406 88.375 C 162.703125 88.375 143.804688 89.988281 127.503906 93.203125 C 103.132812 98.015625 85.285156 105.859375 84.628906 116.378906 C 84.542969 117.78125 87.292969 129.734375 91.230469 145.976562 L 89.734375 149.140625 C 88.652344 151.457031 83.742188 154.757812 80.527344 156.675781 C 80.355469 156.777344 80.183594 156.910156 80.011719 157.074219 Z M 177.945312 299.347656 L 107.398438 258.148438 C 105.558594 257.070312 104.402344 255.277344 104.082031 253.328125 C 103.828125 252.324219 103.234375 250.011719 102.382812 246.675781 L 116.453125 246.511719 L 116.761719 247.71875 L 181.519531 285.535156 L 246.28125 247.71875 L 246.988281 244.953125 L 261.148438 244.78125 C 259.699219 250.453125 258.824219 253.851562 258.8125 253.90625 C 258.339844 255.75 257.15625 257.226562 255.632812 258.121094 L 255.644531 258.148438 L 184.980469 299.410156 C 182.726562 300.726562 180.035156 300.613281 177.945312 299.347656 " fill-opacity="1" fill-rule="nonzero"/></g><path fill="#022135" d="M 278.246094 156.648438 C 278.382812 156.695312 281.039062 157.265625 282.558594 159.195312 C 284.082031 161.121094 284.871094 163.59375 285.144531 163.507812 C 285.417969 163.414062 284.417969 158.035156 282.261719 156.214844 C 280.105469 154.402344 276.855469 154.039062 276.855469 154.039062 C 276.855469 154.039062 276.769531 155.945312 276.855469 156.125 C 276.949219 156.308594 278.246094 156.648438 278.246094 156.648438 " fill-opacity="1" fill-rule="evenodd"/><path fill="#ffffff" d="M 261.179688 166.523438 C 261.179688 166.523438 255.722656 155.546875 256.058594 154.578125 C 256.394531 153.605469 257.332031 154.359375 257.652344 154.726562 C 257.980469 155.097656 261.902344 166.609375 261.640625 166.71875 C 261.371094 166.828125 261.179688 166.523438 261.179688 166.523438 Z M 269.089844 167.308594 C 269.089844 167.308594 263.632812 156.332031 263.96875 155.355469 C 264.304688 154.386719 265.246094 155.136719 265.566406 155.507812 C 265.890625 155.871094 269.8125 167.382812 269.550781 167.496094 C 269.292969 167.605469 269.089844 167.308594 269.089844 167.308594 Z M 276.742188 166.972656 C 276.742188 166.972656 272.125 156.796875 272.539062 155.898438 C 272.941406 155 273.828125 155.691406 274.125 156.035156 C 274.417969 156.378906 277.457031 167.046875 277.179688 167.152344 C 276.914062 167.253906 276.742188 166.972656 276.742188 166.972656 Z M 253.839844 166.308594 C 253.839844 166.308594 247.652344 155.671875 247.929688 154.683594 C 248.195312 153.703125 249.183594 154.394531 249.535156 154.746094 C 249.882812 155.097656 254.558594 166.347656 254.304688 166.472656 C 254.050781 166.597656 253.839844 166.308594 253.839844 166.308594 " fill-opacity="1" fill-rule="evenodd"/><g clip-path="url(#1fe1080998)"><path fill="#bc1823" d="M 67.914062 244.601562 L 307.15625 244.601562 C 307.15625 244.601562 293.296875 247.328125 267.71875 248.597656 C 245.859375 249.683594 201.589844 249.839844 189.1875 249.867188 L 189.183594 249.867188 C 189.183594 249.867188 188.597656 249.867188 187.535156 249.867188 C 186.46875 249.867188 185.886719 249.867188 185.886719 249.867188 L 185.878906 249.867188 C 173.476562 249.839844 129.207031 249.683594 107.347656 248.597656 C 81.769531 247.328125 67.914062 244.601562 67.914062 244.601562 " fill-opacity="1" fill-rule="evenodd"/></g><g clip-path="url(#ab5cc0ab4b)"><path fill="#bc1823" d="M 67.914062 200.628906 L 307.15625 200.628906 C 307.15625 200.628906 293.296875 197.902344 267.71875 196.632812 C 245.859375 195.546875 201.589844 195.390625 189.1875 195.363281 L 189.183594 195.363281 C 189.183594 195.363281 188.597656 195.363281 187.535156 195.363281 C 186.46875 195.363281 185.886719 195.363281 185.886719 195.363281 L 185.878906 195.363281 C 173.476562 195.390625 129.207031 195.546875 107.347656 196.632812 C 81.769531 197.902344 67.914062 200.628906 67.914062 200.628906 " fill-opacity="1" fill-rule="evenodd"/></g><g clip-path="url(#44cdfebdcb)"><path fill="#db6d1d" d="M 187.585938 95.289062 L 190.851562 105.316406 L 201.410156 105.316406 L 192.867188 111.511719 L 196.128906 121.539062 L 187.585938 115.34375 L 179.042969 121.539062 L 182.304688 111.511719 L 173.761719 105.316406 L 184.324219 105.316406 L 187.585938 95.289062 " fill-opacity="1" fill-rule="nonzero"/></g><path fill="#db6d1d" d="M 212.429688 102.195312 L 213.976562 106.945312 L 218.980469 106.945312 L 214.929688 109.882812 L 216.476562 114.636719 L 212.429688 111.699219 L 208.378906 114.636719 L 209.925781 109.882812 L 205.875 106.945312 L 210.878906 106.945312 L 212.429688 102.195312 " fill-opacity="1" fill-rule="nonzero"/><g clip-path="url(#4465af8712)"><path fill="#db6d1d" d="M 226.101562 105.890625 L 226.730469 107.820312 L 228.757812 107.820312 L 227.117188 109.011719 L 227.746094 110.9375 L 226.101562 109.746094 L 224.460938 110.9375 L 225.085938 109.011719 L 223.445312 107.820312 L 225.476562 107.820312 L 226.101562 105.890625 " fill-opacity="1" fill-rule="nonzero"/></g><g clip-path="url(#b127096c34)"><path fill="#db6d1d" d="M 149.070312 105.890625 L 149.699219 107.820312 L 151.730469 107.820312 L 150.085938 109.011719 L 150.714844 110.9375 L 149.070312 109.746094 L 147.429688 110.9375 L 148.054688 109.011719 L 146.414062 107.820312 L 148.445312 107.820312 L 149.070312 105.890625 " fill-opacity="1" fill-rule="nonzero"/></g><path fill="#db6d1d" d="M 162.746094 102.195312 L 164.292969 106.945312 L 169.296875 106.945312 L 165.25 109.882812 L 166.796875 114.636719 L 162.746094 111.699219 L 158.695312 114.636719 L 160.242188 109.882812 L 156.191406 106.945312 L 161.199219 106.945312 L 162.746094 102.195312 " fill-opacity="1" fill-rule="nonzero"/><g fill="#bc1823" fill-opacity="1"><g transform="translate(55.937957, 234.026073)"><g><path d="M 8.21875 0.3125 C 6.789062 0.3125 5.429688 0.195312 4.140625 -0.03125 C 2.847656 -0.269531 1.753906 -0.601562 0.859375 -1.03125 L 0.859375 -6.40625 C 1.867188 -5.9375 2.976562 -5.550781 4.1875 -5.25 C 5.40625 -4.945312 6.503906 -4.796875 7.484375 -4.796875 C 8.378906 -4.796875 9.046875 -4.882812 9.484375 -5.0625 C 9.921875 -5.25 10.140625 -5.566406 10.140625 -6.015625 C 10.140625 -6.421875 9.9375 -6.734375 9.53125 -6.953125 C 9.125 -7.179688 8.367188 -7.476562 7.265625 -7.84375 C 6.941406 -7.925781 6.535156 -8.050781 6.046875 -8.21875 C 4.660156 -8.6875 3.582031 -9.191406 2.8125 -9.734375 C 2.039062 -10.285156 1.484375 -10.941406 1.140625 -11.703125 C 0.804688 -12.472656 0.640625 -13.4375 0.640625 -14.59375 C 0.640625 -18.8125 3.570312 -20.921875 9.4375 -20.921875 C 10.488281 -20.921875 11.640625 -20.828125 12.890625 -20.640625 C 14.148438 -20.453125 15.207031 -20.226562 16.0625 -19.96875 L 16.0625 -14.5625 C 14.082031 -15.351562 12.257812 -15.75 10.59375 -15.75 C 9.675781 -15.75 8.953125 -15.671875 8.421875 -15.515625 C 7.898438 -15.367188 7.640625 -15.082031 7.640625 -14.65625 C 7.640625 -14.375 7.75 -14.148438 7.96875 -13.984375 C 8.195312 -13.816406 8.519531 -13.664062 8.9375 -13.53125 C 9.351562 -13.40625 10.085938 -13.203125 11.140625 -12.921875 C 12.773438 -12.472656 14.03125 -11.929688 14.90625 -11.296875 C 15.78125 -10.660156 16.378906 -9.925781 16.703125 -9.09375 C 17.023438 -8.257812 17.1875 -7.242188 17.1875 -6.046875 C 17.1875 -4.085938 16.421875 -2.535156 14.890625 -1.390625 C 13.367188 -0.253906 11.144531 0.3125 8.21875 0.3125 Z M 8.21875 0.3125 "/></g></g></g><g fill="#bc1823" fill-opacity="1"><g transform="translate(76.957568, 234.026073)"><g><path d="M 1.28125 -20.609375 L 8.15625 -20.609375 L 8.15625 -13.40625 L 14.265625 -13.40625 L 14.265625 -20.609375 L 21.15625 -20.609375 L 21.15625 0 L 14.265625 0 L 14.265625 -7.203125 L 8.15625 -7.203125 L 8.15625 0 L 1.28125 0 Z M 1.28125 -20.609375 "/></g></g></g><g fill="#bc1823" fill-opacity="1"><g transform="translate(102.584044, 234.026073)"><g><path d="M 8.546875 -20.609375 L 15.75 -20.609375 L 23.6875 0 L 16.515625 0 L 14.90625 -4.09375 L 9.375 -4.09375 L 7.8125 0 L 0.640625 0 Z M 14.078125 -8.890625 L 12.125 -13.890625 L 10.203125 -8.890625 Z M 14.078125 -8.890625 "/></g></g></g><g fill="#bc1823" fill-opacity="1"><g transform="translate(130.098059, 234.026073)"><g><path d="M 1.28125 -20.609375 L 10.78125 -20.609375 C 14.132812 -20.609375 16.695312 -19.773438 18.46875 -18.109375 C 20.238281 -16.441406 21.125 -13.796875 21.125 -10.171875 C 21.125 -3.390625 17.675781 0 10.78125 0 L 1.28125 0 Z M 9.953125 -5.25 C 10.890625 -5.25 11.65625 -5.378906 12.25 -5.640625 C 12.851562 -5.910156 13.3125 -6.398438 13.625 -7.109375 C 13.945312 -7.828125 14.109375 -8.847656 14.109375 -10.171875 C 14.109375 -11.492188 13.957031 -12.507812 13.65625 -13.21875 C 13.363281 -13.9375 12.921875 -14.4375 12.328125 -14.71875 C 11.742188 -15 10.953125 -15.140625 9.953125 -15.140625 L 8.15625 -15.140625 L 8.15625 -5.25 Z M 9.953125 -5.25 "/></g></g></g><g fill="#bc1823" fill-opacity="1"><g transform="translate(155.052712, 234.026073)"><g><path d="M 1.28125 -20.609375 L 8.15625 -20.609375 L 8.15625 0 L 1.28125 0 Z M 1.28125 -20.609375 "/></g></g></g><g fill="#bc1823" fill-opacity="1"><g transform="translate(167.690387, 234.026073)"><g/></g></g><g fill="#bc1823" fill-opacity="1"><g transform="translate(181.127867, 234.026073)"><g><path d="M 1.28125 -20.609375 L 8.15625 -20.609375 L 8.15625 -14.078125 L 13.53125 -20.609375 L 21.3125 -20.609375 L 14.171875 -12.09375 L 21.890625 0 L 14.59375 0 L 9.953125 -7.75 L 8.15625 -5.65625 L 8.15625 0 L 1.28125 0 Z M 1.28125 -20.609375 "/></g></g></g><g fill="#bc1823" fill-opacity="1"><g transform="translate(206.850328, 234.026073)"><g><path d="M 1.28125 -20.609375 L 8.15625 -20.609375 L 8.15625 0 L 1.28125 0 Z M 1.28125 -20.609375 "/></g></g></g><g fill="#bc1823" fill-opacity="1"><g transform="translate(219.488003, 234.026073)"><g/></g></g><g fill="#bc1823" fill-opacity="1"><g transform="translate(232.925483, 234.026073)"><g><path d="M 12.25 0.3125 C 8.476562 0.3125 5.597656 -0.582031 3.609375 -2.375 C 1.628906 -4.164062 0.640625 -6.773438 0.640625 -10.203125 C 0.640625 -13.679688 1.671875 -16.335938 3.734375 -18.171875 C 5.804688 -20.003906 8.804688 -20.921875 12.734375 -20.921875 C 15.234375 -20.921875 17.410156 -20.613281 19.265625 -20 L 19.265625 -14.140625 C 17.554688 -14.785156 15.539062 -15.109375 13.21875 -15.109375 C 11.40625 -15.109375 10.019531 -14.71875 9.0625 -13.9375 C 8.113281 -13.15625 7.640625 -11.910156 7.640625 -10.203125 C 7.640625 -8.546875 8.019531 -7.347656 8.78125 -6.609375 C 9.539062 -5.867188 10.6875 -5.5 12.21875 -5.5 C 13.132812 -5.5 13.945312 -5.609375 14.65625 -5.828125 L 14.65625 -7.9375 L 10.90625 -7.9375 L 10.90625 -12.125 L 20.390625 -12.125 L 20.390625 -1.625 C 19.472656 -1.050781 18.328125 -0.582031 16.953125 -0.21875 C 15.585938 0.132812 14.019531 0.3125 12.25 0.3125 Z M 12.25 0.3125 "/></g></g></g><g fill="#bc1823" fill-opacity="1"><g transform="translate(257.144303, 234.026073)"><g><path d="M 8.546875 -20.609375 L 15.75 -20.609375 L 23.6875 0 L 16.515625 0 L 14.90625 -4.09375 L 9.375 -4.09375 L 7.8125 0 L 0.640625 0 Z M 14.078125 -8.890625 L 12.125 -13.890625 L 10.203125 -8.890625 Z M 14.078125 -8.890625 "/></g></g></g><g fill="#bc1823" fill-opacity="1"><g transform="translate(284.658325, 234.026073)"><g><path d="M 1.28125 -20.609375 L 10.78125 -20.609375 C 14.132812 -20.609375 16.695312 -19.773438 18.46875 -18.109375 C 20.238281 -16.441406 21.125 -13.796875 21.125 -10.171875 C 21.125 -3.390625 17.675781 0 10.78125 0 L 1.28125 0 Z M 9.953125 -5.25 C 10.890625 -5.25 11.65625 -5.378906 12.25 -5.640625 C 12.851562 -5.910156 13.3125 -6.398438 13.625 -7.109375 C 13.945312 -7.828125 14.109375 -8.847656 14.109375 -10.171875 C 14.109375 -11.492188 13.957031 -12.507812 13.65625 -13.21875 C 13.363281 -13.9375 12.921875 -14.4375 12.328125 -14.71875 C 11.742188 -15 10.953125 -15.140625 9.953125 -15.140625 L 8.15625 -15.140625 L 8.15625 -5.25 Z M 9.953125 -5.25 "/></g></g></g><g fill="#bc1823" fill-opacity="1"><g transform="translate(309.612967, 234.026073)"><g><path d="M 1.28125 -20.609375 L 8.15625 -20.609375 L 8.15625 0 L 1.28125 0 Z M 1.28125 -20.609375 "/></g></g></g><g fill="#022135" fill-opacity="1"><g transform="translate(189.098105, 291.776069)"><g/></g></g><g fill="#022135" fill-opacity="1"><g transform="translate(189.098105, 354.026065)"><g/></g></g></svg>